<svg xmlns="http://www.w3.org/2000/svg" width="640" height="584" viewBox="0 0 640 584" role="img" aria-labelledby="t d" font-family="ui-monospace, SFMono-Regular, Menlo, Consolas, 'Liberation Mono', monospace">
<style>@media (prefers-reduced-motion: reduce){ .pulse animate { display: none } }</style>
<title id="t">Hire probability: 5.41%</title>
<desc id="d">Live "hire probability" exchange. Analyst rating HOLD. Current streak 6 good sessions. 178 commits in 6 sessions · 30/day · never missed a day Not financial advice.</desc>
<rect x="0.5" y="0.5" width="639" height="583" rx="14" fill="#0d1117" stroke="#30363d"/>
<text x="32" y="36" font-size="20" fill="#3fb950" font-weight="bold" text-anchor="start" >$HIRED</text>
<text x="132" y="36" font-size="13" fill="#8b949e" font-weight="normal" text-anchor="start" >HIRE PROBABILITY EXCHANGE</text>
<text x="608" y="36" font-size="13" fill="#8b949e" font-weight="normal" text-anchor="end" >2026-10-06 IST</text>
<text x="447.4" y="36" font-size="12" fill="#3fb950" font-weight="bold" text-anchor="start" >LIVE</text>
<circle class="pulse" cx="434.4" cy="31" r="4" fill="#3fb950"><animate attributeName="opacity" values="1;0.25;1" dur="2s" repeatCount="indefinite"/></circle>
<line x1="32" y1="52" x2="608" y2="52" stroke="#21262d" stroke-width="1"/>
<text x="32" y="78" font-size="12" fill="#8b949e" font-weight="normal" text-anchor="start" letter-spacing="1">HIRE PROBABILITY</text>
<text x="32" y="134" font-size="56" fill="#f0f6fc" font-weight="bold" text-anchor="start" >5.41%</text>
<text x="32" y="164" font-size="18" font-weight="bold" fill="#3fb950">▲ +0.85<tspan fill="#8b949e" font-weight="normal" font-size="13">  ·  EXACT HIT</tspan></text>
<rect x="32" y="182" width="182" height="28" rx="6" fill="#d29922" fill-opacity="0.14" stroke="#d29922"/>
<text x="44" y="201" font-size="13" fill="#d29922" font-weight="bold" text-anchor="start" >ANALYST RATING: HOLD</text>
<text x="32" y="242" font-size="14" fill="#f0f6fc" font-weight="normal" text-anchor="start" >178 commits in 6 sessions · 30/day · never missed a day</text>
<text x="32" y="262" font-size="11" fill="#8b949e" font-weight="normal" text-anchor="start" >6 sessions · 100% hit rate · best streak 6 · 3 exact / 1 near / 2 beat / 0 miss</text>
<text x="32" y="288" font-size="14" fill="#f0f6fc" font-weight="normal" text-anchor="start" >Today's call: 15–43 commits</text>
<text x="32" y="306" font-size="12" fill="#8b949e" font-weight="normal" text-anchor="start" >(7-day range, avg 31.43, settles 00:00 IST)</text>
<text x="32" y="326" font-size="12" fill="#8b949e" font-weight="normal" text-anchor="start" >Streak: 6 good  ·  best 6</text>
<line x1="32" y1="344" x2="608" y2="344" stroke="#21262d" stroke-width="1"/>
<text x="32" y="366" font-size="12" fill="#8b949e" font-weight="normal" text-anchor="start" letter-spacing="1">PROBABILITY · LAST 30 SESSIONS</text>
<line x1="32" y1="380.0" x2="608" y2="380.0" stroke="#21262d" stroke-width="1"/><line x1="32" y1="407.0" x2="608" y2="407.0" stroke="#21262d" stroke-width="1"/><line x1="32" y1="434.0" x2="608" y2="434.0" stroke="#21262d" stroke-width="1"/><polygon points="32,434 32.0,428.8 128.0,419.2 224.0,418.3 320.0,409.5 416.0,401.8 512.0,392.6 608.0,385.2 608,434" fill="#3fb950" opacity="0.12"/><polyline points="32.0,428.8 128.0,419.2 224.0,418.3 320.0,409.5 416.0,401.8 512.0,392.6 608.0,385.2" fill="none" stroke="#3fb950" stroke-width="2" stroke-linejoin="round"/><circle cx="608.0" cy="385.2" r="4" fill="#3fb950"/><text x="608" y="376" font-size="11" fill="#8b949e" font-weight="normal" text-anchor="end" >hi 5.41%</text><text x="608" y="446" font-size="11" fill="#8b949e" font-weight="normal" text-anchor="end" >lo 0.42%</text>
<text x="32" y="464" font-size="12" fill="#8b949e" font-weight="normal" text-anchor="start" letter-spacing="1">FORECAST vs SHIPPED</text>
<rect x="213.35999999999999" y="456" width="9" height="9" rx="2" fill="#484f58" fill-opacity="0.18" stroke="#484f58"/>
<text x="227.35999999999999" y="464" font-size="11" fill="#8b949e" font-weight="normal" text-anchor="start" >forecast range</text>
<rect x="340.84" y="456" width="9" height="9" rx="2" fill="#3fb950"/>
<text x="354.84" y="464" font-size="11" fill="#8b949e" font-weight="normal" text-anchor="start" >shipped</text>
<line x1="32" y1="528" x2="608" y2="528" stroke="#21262d" stroke-width="1"/><g><title>2026-09-30 — forecast 5–42, shipped 50 — 🚀 Beat</title><rect x="120.3" y="499.4" width="16" height="26.6" rx="2" fill="#484f58" fill-opacity="0.18" stroke="#484f58" stroke-width="1.5"/><rect x="144.3" y="494.0" width="16" height="34.0" rx="2" fill="#3fb950"/><text x="152.28571428571428" y="491.0" font-size="11" fill="#8b949e" font-weight="normal" text-anchor="middle" >50</text></g><text x="155.4" y="541" font-size="11" fill="#8b949e" font-weight="normal" text-anchor="middle" >Wed</text><g><title>2026-10-01 — forecast 5–42, shipped 4 — 🟢 Near hit</title><rect x="202.6" y="499.4" width="16" height="26.6" rx="2" fill="#484f58" fill-opacity="0.18" stroke="#484f58" stroke-width="1.5"/><rect x="226.6" y="525.3" width="16" height="2.7" rx="2" fill="#3fb950"/><text x="234.57142857142858" y="522.28" font-size="11" fill="#8b949e" font-weight="normal" text-anchor="middle" >4</text></g><text x="237.7" y="541" font-size="11" fill="#8b949e" font-weight="normal" text-anchor="middle" >Thu</text><g><title>2026-10-02 — forecast 4–42, shipped 43 — 🚀 Beat</title><rect x="284.9" y="499.4" width="16" height="26.6" rx="2" fill="#484f58" fill-opacity="0.18" stroke="#484f58" stroke-width="1.5"/><rect x="308.9" y="498.8" width="16" height="29.2" rx="2" fill="#3fb950"/><text x="316.8571428571429" y="495.76" font-size="11" fill="#8b949e" font-weight="normal" text-anchor="middle" >43</text></g><text x="320.0" y="541" font-size="11" fill="#8b949e" font-weight="normal" text-anchor="middle" >Fri</text><g><title>2026-10-03 — forecast 11–43, shipped 38 — ✅ Exact hit</title><rect x="367.1" y="498.8" width="16" height="27.2" rx="2" fill="#484f58" fill-opacity="0.18" stroke="#484f58" stroke-width="1.5"/><rect x="391.1" y="502.2" width="16" height="25.8" rx="2" fill="#3fb950"/><text x="399.14285714285717" y="499.16" font-size="11" fill="#8b949e" font-weight="normal" text-anchor="middle" >38</text></g><text x="402.3" y="541" font-size="11" fill="#8b949e" font-weight="normal" text-anchor="middle" >Sat</text><g><title>2026-10-04 — forecast 11–43, shipped 28 — ✅ Exact hit</title><rect x="449.4" y="498.8" width="16" height="27.2" rx="2" fill="#484f58" fill-opacity="0.18" stroke="#484f58" stroke-width="1.5"/><rect x="473.4" y="509.0" width="16" height="19.0" rx="2" fill="#3fb950"/><text x="481.42857142857144" y="505.96" font-size="11" fill="#8b949e" font-weight="normal" text-anchor="middle" >28</text></g><text x="484.6" y="541" font-size="11" fill="#8b949e" font-weight="normal" text-anchor="middle" >Sun</text><g><title>2026-10-05 — forecast 11–43, shipped 15 — ✅ Exact hit</title><rect x="531.7" y="498.8" width="16" height="27.2" rx="2" fill="#484f58" fill-opacity="0.18" stroke="#484f58" stroke-width="1.5"/><rect x="555.7" y="517.8" width="16" height="10.2" rx="2" fill="#3fb950"/><text x="563.7142857142858" y="514.8" font-size="11" fill="#8b949e" font-weight="normal" text-anchor="middle" >15</text></g><text x="566.9" y="541" font-size="11" fill="#8b949e" font-weight="normal" text-anchor="middle" >Mon</text>
<line x1="32" y1="542" x2="608" y2="542" stroke="#21262d" stroke-width="1"/>
<text x="32" y="560" font-size="12" fill="#d29922" font-weight="normal" text-anchor="start" font-style="italic">“Market is bullish. Recruiters remain bearish on reading READMEs.”</text>
<text x="32" y="578" font-size="11" fill="#8b949e" font-weight="normal" text-anchor="start" >Not financial advice. Also not a job guarantee.</text>
</svg>